# xmcd
#
# Track frame offsets:
#	150
#	18153
#	36305
#	48386
#	63143
#	76774
#	90344
#	107103
#	122355
#	136221
#	153108
#	165530
#	184365
#	200324
#	219474
#	239735
#
# Disc length: 3438 seconds
#
# Revision: 0
# Processed by: cddbd v1.4PL0 Copyright (c) Steve Scherf et al.
# Submitted via: dBpowerAMP V4.0
#
DISCID=c70d6c10
DTITLE=Nashville Session Singers - Golden Country Ballads
DYEAR=1900
DGENRE=Country
TTITLE0=I Believe In You
TTITLE1=Lady
TTITLE2=You're My Jamaica
TTITLE3=Love The World Away
TTITLE4=True Love Ways
TTITLE5=I Will Always Love You
TTITLE6=Always On My Mind
TTITLE7=He Stopped Loving Her Today
TTITLE8=Honky Tonk Angel
TTITLE9=You Decorated My Life
TTITLE10=Amanda
TTITLE11=She Believes In Me
TTITLE12=Save The Last Dance For Me
TTITLE13=Help Me Make It Through The Night
TTITLE14=Coward Of The County
TTITLE15=Angel Of The Morning
EXTD=
EXTT0=
EXTT1=
EXTT2=
EXTT3=
EXTT4=
EXTT5=
EXTT6=
EXTT7=
EXTT8=
EXTT9=
EXTT10=
EXTT11=
EXTT12=
EXTT13=
EXTT14=
EXTT15=
PLAYORDER=
